<?xml version="1.0" encoding="UTF-8" standalone="no"?>
<!-- Created with Inkscape (http://www.inkscape.org/) -->

<svg
   xmlns:dc="http://purl.org/dc/elements/1.1/"
   xmlns:cc="http://creativecommons.org/ns#"
   xmlns:rdf="http://www.w3.org/1999/02/22-rdf-syntax-ns#"
   xmlns:svg="http://www.w3.org/2000/svg"
   xmlns="http://www.w3.org/2000/svg"
   xmlns:sodipodi="http://sodipodi.sourceforge.net/DTD/sodipodi-0.dtd"
   xmlns:inkscape="http://www.inkscape.org/namespaces/inkscape"
   id="svg2"
   height="549.22"
   width="549.21"
   version="1.1"
   sodipodi:docname="logo_france-bleu.svg"
   inkscape:version="0.92.3 (2405546, 2018-03-11)">
  <defs
     id="defs4536" />
  <sodipodi:namedview
     pagecolor="#ffffff"
     bordercolor="#666666"
     borderopacity="1"
     objecttolerance="10"
     gridtolerance="10"
     guidetolerance="10"
     inkscape:pageopacity="0"
     inkscape:pageshadow="2"
     inkscape:window-width="1366"
     inkscape:window-height="705"
     id="namedview4534"
     showgrid="false"
     inkscape:zoom="0.97592955"
     inkscape:cx="274.60501"
     inkscape:cy="274.60999"
     inkscape:window-x="-8"
     inkscape:window-y="-8"
     inkscape:window-maximized="1"
     inkscape:current-layer="svg2" />
  <metadata
     id="metadata7">
    <rdf:RDF>
      <cc:Work
         rdf:about="">
        <dc:format>image/svg+xml</dc:format>
        <dc:type
           rdf:resource="http://purl.org/dc/dcmitype/StillImage" />
        <dc:title></dc:title>
      </cc:Work>
    </rdf:RDF>
  </metadata>
  <g
     id="layer1"
     transform="matrix(0.46454252,0,0,0.36197519,139.51141,184.74099)">
    <path
       id="path4489"
       d="M -300.32,1007 H 160.31 V 546.37 h -460.63 z"
       inkscape:connector-curvature="0"
       style="fill-rule:evenodd" />
    <path
       id="path4495"
       d="M -211.74,918.38 H 248.89 V 457.75 h -460.63 z"
       inkscape:connector-curvature="0"
       style="fill:#0078d7;fill-rule:evenodd" />
    <path
       id="path4491"
       d="m 307.28,224.34 c -4.86,0 -10.08,1.9 -12.87,6.04 -2.25,3.42 -2.07,8.19 -2.07,12.15 h -5.31 v 10.28 h 5.31 v 34.28 h 13.22 v -34.28 h 8.1 v -10.28 h -8.1 v -0.97 c 0,-3.87 -0.01,-6.68 4.22,-6.68 2.07,0 3.08,0 5.06,0.28 V 225 c -2.78,-0.54 -6.48,-0.66 -7.56,-0.66 z m 32.88,16.1 c -5.05,0.2 -7.49,4.91 -8.75,9.47 h -0.19 v -8.53 h -12.34 v 45.71 h 13.24 v -17.47 c 0,-8.1 1.24,-16.28 11.32,-15.74 v -13.22 l -2.25,-0.19 c -0.36,-0.03 -0.7,-0.05 -1.03,-0.03 z m 28.03,0.03 c -9.63,0 -20.4,3.24 -21.75,14.31 l 12.5,1.16 c 0,-4.5 3.68,-6.66 7.9,-6.66 1.98,0 4.24,0.63 5.41,2.16 1.35,1.71 1.16,4.05 1.16,6.03 v 1.09 c -5.58,0.54 -12.85,0.9 -18.07,2.88 -6.03,2.25 -10.28,6.84 -10.28,13.59 0,8.64 6.31,12.97 14.41,12.97 6.84,0 10.81,-2.63 14.59,-8.03 -0.09,2.34 0.09,4.78 0.63,7.12 h 13.12 c -0.72,-2.25 -0.87,-4.5 -0.87,-6.84 v -21.34 c 0,-5.49 0.43,-10.53 -4.25,-14.32 -3.69,-3.06 -9.82,-4.12 -14.5,-4.12 z m 51.31,0 c -6.66,0 -10.42,2.8 -13.12,8.65 h -0.19 v -7.74 h -12.53 v 45.71 h 13.25 v -24.56 c 0,-2.88 0.18,-5.51 1.53,-8.12 1.08,-2.07 3.22,-3.41 5.56,-3.41 6.66,0 6.03,6.85 6.03,11.53 v 24.56 h 13.25 v -28.25 c 0,-4.14 -0.01,-9.92 -2.53,-13.34 -2.7,-3.69 -6.93,-5.03 -11.25,-5.03 z m 40.94,0 c -14.4,0 -22.85,10.18 -22.85,24.22 0,13.5 8.21,23.31 22.07,23.31 11.16,0 19.7,-6.75 20.78,-18.09 l -12.6,-0.72 c -0.45,4.23 -2.78,7.9 -7.46,7.9 -7.56,0 -7.66,-7.92 -7.66,-13.5 0,-5.85 0.9,-13.03 8.19,-13.03 4.77,0 6.93,4.05 6.93,8.19 l 12.6,-0.72 c -0.9,-10.71 -9.38,-17.56 -20,-17.56 z m 45,0 c -14.22,0 -22.22,10.87 -22.22,24.37 0,13.59 8.91,23.16 22.59,23.16 15.48,0 20.78,-13.5 20.78,-15.75 l -12.25,-0.91 c 0,4.24 -4.04,7.19 -8.09,7.19 -5.76,0 -8.81,-4.41 -8.81,-9.81 l 0.09,-2.25 h 29.35 c 0.08,-6.21 -0.91,-12.69 -4.69,-17.91 -3.78,-5.22 -10.36,-8.09 -16.75,-8.09 z m 0.56,8.65 c 5.76,0 7.36,4.59 7.62,9.54 h -16.18 c 0.45,-5.22 2.71,-9.54 8.56,-9.54 z M 110.94,262.84 V 438.5 h 20.5 c 2.3,-6.91 3.82,-14.34 8.44,-19.97 9.47,15.62 18.43,22.53 37.12,22.53 39.18,0 52.75,-33.54 52.75,-67.59 0,-30.73 -11.28,-67.59 -48.41,-67.59 -14.59,0 -25.34,6.13 -31.75,18.93 h -1 v -61.97 z m 126.5,0 V 438.5 h 37.62 V 262.84 Z m 135.97,2.38 v 1.81 c 0,3.24 0.11,5.93 -1.79,8.81 -1.53,2.34 -3.95,3.78 -6.65,3.78 -3.69,0 -5.85,-2.43 -5.85,-6.03 0,-6.66 9.25,-7.83 14.29,-8.37 z m -26.63,40.66 c -40.46,0 -63.25,30.99 -63.25,69.4 0,38.67 25.33,65.78 64.25,65.78 44.04,0 59.16,-38.41 59.16,-44.81 l -34.82,-2.53 c 0,12.03 -11.53,20.47 -23.06,20.47 -16.39,0 -25.09,-12.55 -25.09,-27.91 l 0.28,-6.4 h 83.47 c 0.26,-17.67 -2.56,-36.12 -13.31,-50.97 -10.76,-14.85 -29.45,-23.03 -47.63,-23.03 z m 69.63,2.56 v 81.94 c 0,12.54 -0.77,24.82 6.4,36.09 7.43,11.78 18.69,14.59 31.75,14.59 17.67,0 30.98,-8.42 37.13,-24.81 h 0.53 v 22.25 h 34.81 V 308.44 h -37.62 v 69.9 c 0,6.66 0.49,14.08 -2.07,19.97 -3.32,7.68 -10.48,12.57 -18.93,12.57 -13.32,0 -14.35,-10.01 -14.35,-20.5 v -81.94 z m -68.1,22.03 c 16.39,0 20.98,13.04 21.75,27.12 h -46.09 c 1.28,-14.85 7.7,-27.12 24.34,-27.12 z m -178.47,1.28 c 20.74,0 20.72,27.12 20.72,41.72 0,14.08 0,41.22 -21.25,41.22 -6.91,0 -12.29,-3.31 -15.87,-8.94 -4.1,-6.4 -4.35,-14.61 -4.35,-21.78 v -18.69 c 0,-13.82 2.57,-33.53 20.75,-33.53 z m -81.246,98.78 -20.313,1.56 0.313,40.38 c 0,0 24.415,1.26 30.187,1.62 5.759,0.37 11.909,0.49 13.749,7.44 1.99,7.55 -6.87,13.06 -9.87,13.06 9.09,0 7.05,-0.03 13.87,-0.03 5.56,-1.02 11.86,-7.69 11.06,-17.65 -1.05,-13.16 -11.15,-16.29 -21.9,-16.29 H 88.594 Z m -48.188,38.19 c -3.691,4.46 -7.363,11.28 -5.25,18.9 6.318,21.33 40.256,30.75 54.532,31.32 l -1.657,-24.97 c 0,0 -23.192,3.06 -34.906,-9.22 -4.971,-5.2 -3.96,-10.67 -0.219,-15.41 -4.383,-0.2 -9.553,-0.49 -12.5,-0.62 z"
       transform="translate(-300.32,457.75)"
       inkscape:connector-curvature="0"
       style="fill:#ffffff" />
  </g>
</svg>
